<?xml version="1.0" encoding="utf-8"?>
<!-- Generator: Adobe Illustrator 21.0.0, SVG Export Plug-In . SVG Version: 6.00 Build 0)  -->
<svg version="1.1" id="Layer_4" xmlns="http://www.w3.org/2000/svg" xmlns:xlink="http://www.w3.org/1999/xlink" x="0px" y="0px"
	 viewBox="0 0 536.9 128" style="enable-background:new 0 0 536.9 128;" xml:space="preserve">
<style type="text/css">
	.st0{fill:none;}
	.st1{fill:#FFC107;}
	.st2{fill:#0F9D58;}
	.st3{opacity:0.2;fill:#BF360C;enable-background:new    ;}
	.st4{opacity:0.2;fill:#263238;enable-background:new    ;}
	.st5{opacity:0.2;fill:#FFFFFF;enable-background:new    ;}
	.st6{fill:url(#XMLID_2_);}
	.st7{fill:url(#XMLID_3_);}
	.st8{fill:#4285F4;}
	.st9{fill:#DB4437;}
	.st10{opacity:0.2;fill:#1A237E;enable-background:new    ;}
	.st11{opacity:0.2;fill:#3E2723;enable-background:new    ;}
	.st12{fill:url(#XMLID_4_);}
	.st13{fill:#767676;}
</style>
<g id="XMLID_60_">
	<g id="XMLID_61_">
		<g id="XMLID_62_">
			<path id="XMLID_106_" class="st0" d="M78.4,58L44.8,0H0l37,64L0,128h44.8l33.5-58C80.5,66.3,80.5,61.7,78.4,58z"/>
			<path id="XMLID_105_" class="st1" d="M59.2,102.3L48.5,83.9L23,128h21.8l14.6-25.2L59.2,102.3z"/>
			<path id="XMLID_104_" class="st0" d="M78.4,58L44.8,0H0l37,64L0,128h44.8l33.5-58C80.5,66.3,80.5,61.7,78.4,58z"/>
			<path id="XMLID_103_" class="st2" d="M37,64l11.5,19.9L23,128H0L37,64z"/>
			<path id="XMLID_102_" class="st0" d="M78.4,58L44.8,0H0l37,64L0,128h44.8l33.5-58C80.5,66.3,80.5,61.7,78.4,58z"/>
			<path id="XMLID_101_" class="st3" d="M44.8,127H23.6l-0.6,1h21.8l14.6-25.2l-0.2-0.5L44.8,127z"/>
			<path id="XMLID_100_" class="st0" d="M78.4,58L44.8,0H0l37,64L0,128h44.8l33.5-58C80.5,66.3,80.5,61.7,78.4,58z"/>
			<path id="XMLID_99_" class="st4" d="M0.6,127L0,128h23l0.6-1H0.6z"/>
			<path id="XMLID_98_" class="st0" d="M78.4,58L44.8,0H0l37,64L0,128h44.8l33.5-58C80.5,66.3,80.5,61.7,78.4,58z"/>
			<path id="XMLID_96_" class="st5" d="M0,128h0.6l36.7-63.5L37,64L0,128z"/>
			<path id="XMLID_94_" class="st0" d="M78.4,58L44.8,0H0l37,64L0,128h44.8l33.5-58C80.5,66.3,80.5,61.7,78.4,58z"/>
			
				<radialGradient id="XMLID_2_" cx="59.277" cy="-2181.0859" r="44.264" gradientTransform="matrix(1 0 0 1 0 2283.46)" gradientUnits="userSpaceOnUse">
				<stop  offset="0" style="stop-color:#BF360C;stop-opacity:0.2"/>
				<stop  offset="1" style="stop-color:#BF360C;stop-opacity:2.000000e-02"/>
			</radialGradient>
			<path id="XMLID_92_" class="st6" d="M59.4,102.8L48.5,83.9l-2.7,4.6L59.4,102.8z"/>
			<path id="XMLID_90_" class="st0" d="M78.4,58L44.8,0H0l37,64L0,128h44.8l33.5-58C80.5,66.3,80.5,61.7,78.4,58z"/>
			
				<radialGradient id="XMLID_3_" cx="59.151" cy="-2180.8059" r="44.623" gradientTransform="matrix(1 0 0 1 0 2283.46)" gradientUnits="userSpaceOnUse">
				<stop  offset="0" style="stop-color:#263238;stop-opacity:0.2"/>
				<stop  offset="1" style="stop-color:#263238;stop-opacity:2.000000e-02"/>
			</radialGradient>
			<path id="XMLID_89_" class="st7" d="M45.8,88.5l2.7-4.6L37,64l-5.5,9.5L45.8,88.5z"/>
			<path id="XMLID_88_" class="st0" d="M78.4,58L44.8,0H0l37,64L0,128h44.8l33.5-58C80.5,66.3,80.5,61.7,78.4,58z"/>
			<g id="XMLID_85_">
				<g id="XMLID_86_">
					<path id="XMLID_87_" class="st8" d="M23,0H0l59.4,102.8l11.5-19.9L23,0z"/>
				</g>
			</g>
			<path id="XMLID_84_" class="st0" d="M78.4,58L44.8,0H0l37,64L0,128h44.8l33.5-58C80.5,66.3,80.5,61.7,78.4,58z"/>
			<path id="XMLID_83_" class="st9" d="M78.4,70c2.1-3.7,2.1-8.3,0-12L44.8,0H23l47.9,82.9L78.4,70z"/>
			<path id="XMLID_82_" class="st0" d="M78.4,58L44.8,0H0l37,64L0,128h44.8l33.5-58C80.5,66.3,80.5,61.7,78.4,58z"/>
			<path id="XMLID_71_" class="st10" d="M70.9,82.9l-0.2-0.5l-11.3,19.4L0.6,0H0l59.4,102.8L70.9,82.9z"/>
			<path id="XMLID_69_" class="st0" d="M78.4,58L44.8,0H0l37,64L0,128h44.8l33.5-58C80.5,66.3,80.5,61.7,78.4,58z"/>
			<path id="XMLID_67_" class="st5" d="M44.8,1l33.5,58c1,1.7,1.5,3.6,1.6,5.5c0.1-2.2-0.4-4.5-1.6-6.5L44.8,0H0l0.6,1H44.8z"/>
			<path id="XMLID_66_" class="st0" d="M78.4,58L44.8,0H0l37,64L0,128h44.8l33.5-58C80.5,66.3,80.5,61.7,78.4,58z"/>
			<path id="XMLID_65_" class="st11" d="M70.9,82.9L78.4,70c1.2-2,1.7-4.3,1.6-6.5c-0.1,1.9-0.6,3.8-1.6,5.5l-7.7,13.4L70.9,82.9z"
				/>
			<path id="XMLID_64_" class="st0" d="M78.4,58L44.8,0H0l37,64L0,128h44.8l33.5-58C80.5,66.3,80.5,61.7,78.4,58z"/>
			
				<radialGradient id="XMLID_4_" cx="-1" cy="-2282.46" r="134.35" gradientTransform="matrix(1 0 0 1 0 2283.46)" gradientUnits="userSpaceOnUse">
				<stop  offset="0" style="stop-color:#FFFFFF;stop-opacity:0.1"/>
				<stop  offset="1" style="stop-color:#FFFFFF;stop-opacity:0"/>
			</radialGradient>
			<path id="XMLID_63_" class="st12" d="M78.4,58L44.8,0H0l37,64L0,128h44.8l33.5-58C80.5,66.3,80.5,61.7,78.4,58z"/>
		</g>
	</g>
</g>
<g id="XMLID_7_">
	<path class="st13" d="M176.3,33.2c0,7-2.1,12.6-6.2,16.7c-4.7,4.9-10.9,7.4-18.4,7.4c-7.2,0-13.4-2.5-18.4-7.5
		c-5.1-5-7.6-11.2-7.6-18.7s2.5-13.6,7.6-18.7c5.1-5,11.2-7.5,18.4-7.5c3.6,0,7,0.7,10.3,2.1s5.9,3.3,7.8,5.6l-4.4,4.4
		c-3.3-4-7.9-6-13.7-6c-5.3,0-9.8,1.9-13.7,5.6c-3.8,3.7-5.8,8.5-5.8,14.5c0,5.9,1.9,10.7,5.8,14.5c3.9,3.7,8.4,5.6,13.7,5.6
		c5.6,0,10.3-1.9,14-5.6c2.4-2.4,3.8-5.8,4.2-10.1h-18.2v-6H176C176.2,30.7,176.3,32,176.3,33.2z M182.7,56.2V6.1H198
		c7.7,0,13.9,2.3,18.5,7c4.6,4.6,6.9,10.7,6.9,18.1s-2.3,13.5-6.9,18.1c-4.6,4.6-10.8,7-18.5,7h-15.3V56.2z M189.1,50h8.9
		c5.8,0,10.4-1.7,13.8-5c3.4-3.3,5.1-8,5.1-13.9s-1.7-10.6-5.1-13.9c-3.4-3.3-8-5-13.8-5h-8.9V50z M278.1,33.2
		c0,7-2.1,12.6-6.2,16.7c-4.7,4.9-10.9,7.4-18.4,7.4c-7.2,0-13.4-2.5-18.4-7.5c-5.1-5-7.6-11.2-7.6-18.7s2.5-13.6,7.6-18.7
		c5.1-5,11.2-7.5,18.4-7.5c3.6,0,7,0.7,10.3,2.1s5.9,3.3,7.8,5.6l-4.4,4.4c-3.3-4-7.9-6-13.7-6c-5.3,0-9.8,1.9-13.7,5.6
		c-3.8,3.7-5.8,8.5-5.8,14.5c0,5.9,1.9,10.7,5.8,14.5c3.9,3.7,8.4,5.6,13.7,5.6c5.6,0,10.3-1.9,14-5.6c2.4-2.4,3.8-5.8,4.2-10.1
		h-18.2v-6h24.3C278,30.7,278.1,32,278.1,33.2z M301.3,56.2V6.1h15.3c7.7,0,13.9,2.3,18.5,7c4.6,4.6,6.9,10.7,6.9,18.1
		s-2.3,13.5-6.9,18.1s-10.8,7-18.5,7h-15.3V56.2z M307.8,50h8.9c5.8,0,10.4-1.7,13.8-5s5.1-8,5.1-13.9s-1.7-10.6-5.1-13.9
		s-8-5-13.8-5h-8.9V50z M363.1,57.3c-5.2,0-9.4-1.7-12.6-5.2s-4.9-7.8-4.9-13.1c0-5,1.6-9.3,4.7-12.9s7.2-5.4,12.1-5.4
		c5.1,0,9.2,1.7,12.2,5c3.1,3.3,4.6,7.7,4.6,13.3l-0.1,1.2H352c0.2,3.5,1.3,6.2,3.5,8.2c2.1,2,4.6,3,7.5,3c4.6,0,7.7-2,9.4-5.9
		l5.7,2.4c-1.1,2.7-3,4.9-5.5,6.7C370,56.4,366.9,57.3,363.1,57.3z M372.4,34.9c-0.1-2-1-3.8-2.7-5.6c-1.7-1.8-4.1-2.7-7.4-2.7
		c-2.4,0-4.4,0.7-6.2,2.2c-1.8,1.5-3,3.5-3.6,6L372.4,34.9L372.4,34.9z M392.8,56.2l-13.9-34.3h7L396,48.5h0.1l10.2-26.6h6.9
		l-14,34.3L392.8,56.2L392.8,56.2z M423.4,56.2H417V6.1h29.3v6.2h-22.8v16.5H444v6h-20.6C423.4,34.8,423.4,56.2,423.4,56.2z
		 M465.7,57.3c-5.2,0-9.4-1.7-12.6-5.2s-4.9-7.8-4.9-13.1c0-5,1.6-9.3,4.7-12.9c3.2-3.6,7.2-5.4,12.1-5.4c5.1,0,9.2,1.7,12.2,5
		c3.1,3.3,4.6,7.7,4.6,13.3l-0.1,1.2h-27.1c0.2,3.5,1.3,6.2,3.5,8.2c2.1,2,4.6,3,7.5,3c4.6,0,7.7-2,9.4-5.9l5.7,2.4
		c-1.1,2.7-3,4.9-5.5,6.7C472.6,56.4,469.4,57.3,465.7,57.3L465.7,57.3z M474.9,34.9c-0.1-2-1-3.8-2.7-5.6c-1.7-1.8-4.1-2.7-7.4-2.7
		c-2.4,0-4.4,0.7-6.2,2.2c-1.8,1.5-3,3.5-3.6,6L474.9,34.9L474.9,34.9z M498.9,57.3c-3.8,0-7-0.9-9.5-2.8s-4.3-4.2-5.5-7l5.7-2.4
		c1.8,4.3,4.9,6.4,9.3,6.4c2,0,3.7-0.4,4.9-1.3c1.3-0.9,1.9-2.1,1.9-3.5c0-2.2-1.6-3.8-4.7-4.5l-6.9-1.7c-2.2-0.6-4.3-1.6-6.2-3.2
		c-2-1.6-2.9-3.7-2.9-6.3c0-3,1.3-5.5,4-7.4s5.9-2.8,9.6-2.8c3,0,5.7,0.7,8.1,2.1s4.1,3.3,5.1,5.9l-5.6,2.3c-1.3-3-3.9-4.6-7.8-4.6
		c-1.9,0-3.5,0.4-4.8,1.2c-1.3,0.8-2,1.9-2,3.2c0,2,1.5,3.3,4.5,4l6.8,1.6c3.2,0.7,5.6,2,7.1,3.9c1.5,1.8,2.3,3.9,2.3,6.2
		c0,3.1-1.3,5.6-3.8,7.7C506.1,56.3,502.9,57.3,498.9,57.3z M531.8,56.8c-3.6,0-6.3-1-8.2-2.9s-2.8-4.6-2.8-8.1v-18h-6v-5.9h6V11.4
		h6.4v10.5h8.4v5.9h-8.4v17.5c0,3.7,1.5,5.6,4.6,5.6c1.2,0,2.1-0.2,2.9-0.6l2.2,5.5C535.5,56.5,533.8,56.8,531.8,56.8L531.8,56.8z
		 M142.2,123.3c-3.6,0-7.2-1.2-10.7-3.6s-5.8-5.7-6.8-10l5.9-2.4c0.7,2.8,2.1,5.1,4.3,7s4.6,2.8,7.3,2.8c2.8,0,5.2-0.7,7.2-2.2
		s3-3.5,3-6c0-2.8-1-5-3-6.5s-5.1-2.9-9.4-4.2c-4.4-1.4-7.8-3.2-10.1-5.4s-3.4-5.1-3.4-8.5c0-3.6,1.4-6.7,4.3-9.4
		c2.8-2.7,6.6-4,11.1-4c4.2,0,7.7,1.1,10.4,3.2s4.4,4.4,5.2,7l-5.9,2.4c-0.4-1.6-1.5-3.1-3.1-4.4c-1.7-1.4-3.8-2-6.4-2
		c-2.5,0-4.6,0.7-6.3,2.1c-1.8,1.4-2.6,3.1-2.6,5.1c0,1.9,0.8,3.4,2.4,4.7c1.6,1.3,4,2.4,7.1,3.5c2.5,0.8,4.5,1.6,6.2,2.3
		c1.7,0.7,3.3,1.7,5,3c1.7,1.2,3,2.8,3.9,4.6c0.9,1.8,1.3,4,1.3,6.4s-0.5,4.6-1.5,6.5s-2.3,3.4-4,4.5s-3.4,2-5.4,2.6
		S144.2,123.3,142.2,123.3L142.2,123.3z M180.1,123.3c-5.2,0-9.4-1.7-12.6-5.2c-3.2-3.5-4.9-7.8-4.9-13.1c0-5,1.6-9.3,4.7-12.9
		c3.1-3.6,7.2-5.4,12.1-5.4c5.1,0,9.2,1.7,12.2,5c3.1,3.3,4.6,7.7,4.6,13.3l-0.1,1.2H169c0.2,3.5,1.3,6.2,3.5,8.2c2.1,2,4.6,3,7.5,3
		c4.6,0,7.7-2,9.4-5.9l5.7,2.4c-1.1,2.7-3,4.9-5.5,6.7C187,122.4,183.8,123.3,180.1,123.3L180.1,123.3z M189.3,100.9
		c-0.1-2-1-3.8-2.7-5.6c-1.7-1.8-4.1-2.7-7.4-2.7c-2.4,0-4.4,0.7-6.2,2.2s-3,3.5-3.6,6L189.3,100.9L189.3,100.9z M211.4,123.3
		c-3.6,0-6.7-1.1-9.1-3.1c-2.4-2.1-3.7-4.9-3.7-8.3c0-3.7,1.4-6.7,4.3-8.8c2.9-2.1,6.5-3.2,10.7-3.2c3.8,0,6.9,0.7,9.3,2.1v-1
		c0-2.5-0.9-4.5-2.6-6.1c-1.7-1.5-3.9-2.3-6.4-2.3c-1.9,0-3.6,0.4-5.1,1.3s-2.6,2.1-3.1,3.6l-5.9-2.5c0.8-2.1,2.4-4,4.7-5.7
		c2.3-1.8,5.4-2.6,9.2-2.6c4.4,0,8,1.3,10.9,3.9s4.3,6.2,4.3,10.8v20.7H223v-4.8h-0.3C220.1,121.4,216.3,123.3,211.4,123.3z
		 M212.5,117.4c2.7,0,5.1-1,7.2-3c2.2-2,3.3-4.3,3.3-7c-1.8-1.5-4.5-2.2-8.2-2.2c-3.1,0-5.5,0.7-7.1,2c-1.6,1.4-2.4,2.9-2.4,4.8
		c0,1.7,0.7,3,2.2,4C208.9,116.9,210.6,117.4,212.5,117.4z M247.7,123.3c-3.8,0-7-0.9-9.5-2.8s-4.3-4.2-5.5-7l5.7-2.4
		c1.8,4.3,4.9,6.4,9.3,6.4c2,0,3.7-0.4,4.9-1.3c1.3-0.9,1.9-2.1,1.9-3.5c0-2.2-1.6-3.8-4.7-4.5l-6.9-1.7c-2.2-0.6-4.3-1.6-6.2-3.2
		c-2-1.6-2.9-3.7-2.9-6.3c0-3,1.3-5.5,4-7.4s5.9-2.8,9.6-2.8c3,0,5.7,0.7,8.1,2.1s4.1,3.3,5.1,5.9l-5.6,2.3c-1.3-3-3.9-4.6-7.8-4.6
		c-1.9,0-3.5,0.4-4.8,1.2c-1.3,0.8-2,1.9-2,3.2c0,2,1.5,3.3,4.6,4l6.8,1.6c3.2,0.7,5.6,2,7.1,3.9c1.5,1.8,2.3,3.9,2.3,6.2
		c0,3.1-1.3,5.6-3.8,7.7C254.9,122.3,251.6,123.3,247.7,123.3L247.7,123.3z M268.6,92c3.3-3.5,7.5-5.2,12.7-5.2
		c5.1,0,9.4,1.7,12.7,5.2c3.3,3.5,5,7.8,5,13.1c0,5.2-1.7,9.6-5,13.1s-7.5,5.2-12.7,5.2c-5.1,0-9.4-1.7-12.7-5.2
		c-3.3-3.5-5-7.8-5-13.1S265.3,95.5,268.6,92z M273.4,114c2.2,2.3,4.8,3.4,7.9,3.4c3,0,5.7-1.1,7.9-3.4s3.3-5.3,3.3-9
		s-1.1-6.7-3.3-9c-2.2-2.3-4.8-3.4-7.9-3.4c-3,0-5.7,1.1-7.9,3.4s-3.3,5.3-3.3,9C270.1,108.8,271.2,111.8,273.4,114z M309.7,87.9
		v4.8h0.3c0.9-1.6,2.4-3,4.4-4.2c2-1.1,4.2-1.7,6.4-1.7c4.2,0,7.5,1.3,9.7,3.9s3.4,6.1,3.4,10.5v21h-6.4v-20c0-6.3-2.8-9.5-8.5-9.5
		c-2.7,0-4.8,1.1-6.5,3.2s-2.5,4.6-2.5,7.4v19h-6.4V87.9H309.7z M386.2,122.2h-30.5v-6.4c9.1-9.2,15-15.2,17.6-18
		c2.3-2.6,3.8-4.5,4.6-5.8c0.8-1.3,1.2-3,1.2-4.9c0-2-0.8-3.8-2.4-5.3s-3.7-2.3-6.4-2.3c-2.4,0-4.4,0.7-5.9,2.1s-2.4,3-2.9,4.6
		l-5.9-2.4c0.8-2.5,2.5-4.9,5-7.1s5.8-3.4,9.8-3.4c4.4,0,8.1,1.4,10.9,4.1s4.3,5.9,4.3,9.7c0,4.7-2.5,9.7-7.6,15L364,116h22.2V122.2
		z M423.1,116.1c-3.5,4.8-8.2,7.2-13.9,7.2c-5.7,0-10.4-2.4-13.9-7.2c-3.5-4.8-5.3-10.8-5.3-17.9s1.8-13.1,5.3-17.9
		s8.2-7.2,13.9-7.2c5.7,0,10.4,2.4,13.9,7.2c3.5,4.8,5.3,10.7,5.3,17.9C428.4,105.4,426.7,111.3,423.1,116.1z M409.2,117.2
		c3.8,0,6.9-1.8,9.2-5.4c2.3-3.6,3.5-8.1,3.5-13.5c0-5.5-1.2-10-3.5-13.5c-2.3-3.6-5.4-5.4-9.2-5.4c-3.9,0-7,1.8-9.2,5.4
		c-2.3,3.6-3.4,8.1-3.4,13.5s1.1,9.9,3.4,13.5C402.2,115.4,405.3,117.2,409.2,117.2z M448.9,122.2h-6.4V82.3l-9.3,4.1l-2.5-5.5
		l14.1-6.6h4.1L448.9,122.2L448.9,122.2z M462.2,123.3l-5.7-2.9l22.2-39.9h-24.2l0.1-6.2h30.9v6.6L462.2,123.3z"/>
</g>
</svg>
